# xmcd
# Copyright (C) 1995-1998 Ti Kan
#
# Track frame offsets:
#       150
#       4193
#       21407
#       42150
#       61760
#       84773
#       107989
#       143805
#       162501
#       186784
#       207401
#
# Disc length: 3072 seconds
#
# Revision: 0
# Processed by: cddbd v1.5.2PL0 Copyright (c) Steve Scherf et al.
# Submitted via: CD-Import v1.0
#
DISCID=8f0bfe0b
DTITLE=Bonobo - Days To Come
DYEAR=2001
DGENRE=
TTITLE0=Intro
TTITLE1=Days To Come (Feat. Bajka)
TTITLE2=Between The Lines (Feat. Bajka)
TTITLE3=The Fever
TTITLE4=Ketto
TTITLE5=Nightlite (Feat. Bajka)
TTITLE6=Transmission94 (Parts 1&2)
TTITLE7=On Your Marks
TTITLE8=If You Stayed Over (Feat. Fink)
TTITLE9=Walk In The Sky (Feat. Bajka)
TTITLE10=Recurring
EXTD=
EXTT0=
EXTT1=
EXTT2=
EXTT3=
EXTT4=
EXTT5=
EXTT6=
EXTT7=
EXTT8=
EXTT9=
EXTT10=
PLAYORDER=
